<svg xmlns="http://www.w3.org/2000/svg" width="66.241" height="47.315" viewBox="0 0 66.241 47.315"><defs><style>.a{opacity:0.17;}.b{fill:#65778d;}</style></defs><g class="a" transform="translate(0 -68.267)"><g transform="translate(0 68.267)"><g transform="translate(0 0)"><path class="b" d="M59.143,68.267H7.1a7.1,7.1,0,0,0-7.1,7.1v33.12a7.1,7.1,0,0,0,7.1,7.1H59.143a7.1,7.1,0,0,0,7.1-7.1V75.364A7.1,7.1,0,0,0,59.143,68.267Zm2.366,27.409L46.622,80.789a2.366,2.366,0,0,0-3.345,0L23.657,100.408l-7.79-7.79a2.366,2.366,0,0,0-3.345,0l-7.79,7.79V75.364A2.366,2.366,0,0,1,7.1,73H59.143a2.366,2.366,0,0,1,2.366,2.366V95.676Z" transform="translate(0 -68.267)"/></g></g><g transform="translate(14.194 77.73)"><g transform="translate(0 0)"><circle class="b" cx="7.097" cy="7.097" r="7.097"/></g></g></g></svg>